<svg width="36" height="35" viewBox="0 0 36 35" fill="none" xmlns="http://www.w3.org/2000/svg">
<path d="M31.125 17.5C31.125 20.981 29.7422 24.3194 27.2808 26.7808C24.8194 29.2422 21.481 30.625 18 30.625C14.519 30.625 11.1806 29.2422 8.71922 26.7808C6.25781 24.3194 4.875 20.981 4.875 17.5C4.875 14.019 6.25781 10.6806 8.71922 8.21922C11.1806 5.75781 14.519 4.375 18 4.375C21.481 4.375 24.8194 5.75781 27.2808 8.21922C29.7422 10.6806 31.125 14.019 31.125 17.5Z" fill="url(#paint0_linear_60_268)"/>
<path d="M31.125 17.5C31.125 20.981 29.7422 24.3194 27.2808 26.7808C24.8194 29.2422 21.481 30.625 18 30.625M31.125 17.5C31.125 14.019 29.7422 10.6806 27.2808 8.21922C24.8194 5.75781 21.481 4.375 18 4.375M31.125 17.5H4.875M18 30.625C14.519 30.625 11.1806 29.2422 8.71922 26.7808C6.25781 24.3194 4.875 20.981 4.875 17.5M18 30.625C20.4165 30.625 22.375 24.7479 22.375 17.5C22.375 10.2521 20.4165 4.375 18 4.375M18 30.625C15.5835 30.625 13.625 24.7479 13.625 17.5C13.625 10.2521 15.5835 4.375 18 4.375M18 4.375C14.519 4.375 11.1806 5.75781 8.71922 8.21922C6.25781 10.6806 4.875 14.019 4.875 17.5" stroke="white" stroke-linecap="round" stroke-linejoin="round"/>
<defs>
<linearGradient id="paint0_linear_60_268" x1="18.5" y1="-23.5" x2="18.5" y2="22.5" gradientUnits="userSpaceOnUse">
<stop stop-color="#D9D9D9"/>
<stop offset="1" stop-color="#D9D9D9" stop-opacity="0"/>
</linearGradient>
</defs>
</svg>
