<svg width="51" height="51" viewBox="0 0 51 51" fill="none" xmlns="http://www.w3.org/2000/svg">
<path d="M8.5 25.5V14.875C8.5 10.1788 16.1117 6.375 25.5 6.375C34.8883 6.375 42.5 10.1788 42.5 14.875V25.5V36.125C42.5 40.8213 34.8883 44.625 25.5 44.625C16.1117 44.625 8.5 40.8213 8.5 36.125V25.5Z" fill="url(#paint0_linear_60_309)"/>
<path d="M8.5 14.875V36.125C8.5 40.8213 16.1117 44.625 25.5 44.625C34.8883 44.625 42.5 40.8213 42.5 36.125V14.875M8.5 14.875C8.5 19.5713 16.1117 23.375 25.5 23.375C34.8883 23.375 42.5 19.5713 42.5 14.875M8.5 14.875C8.5 10.1787 16.1117 6.375 25.5 6.375C34.8883 6.375 42.5 10.1787 42.5 14.875M42.5 25.5C42.5 30.1963 34.8883 34 25.5 34C16.1117 34 8.5 30.1963 8.5 25.5" stroke="white" stroke-width="3" stroke-linecap="round" stroke-linejoin="round"/>
<defs>
<linearGradient id="paint0_linear_60_309" x1="25.5" y1="6.375" x2="25.5" y2="44.625" gradientUnits="userSpaceOnUse">
<stop stop-color="#D9D9D9" stop-opacity="0"/>
<stop offset="1" stop-color="#D9D9D9" stop-opacity="0.2"/>
</linearGradient>
</defs>
</svg>
