<svg width="36" height="37" viewBox="0 0 36 37" fill="none" xmlns="http://www.w3.org/2000/svg">
<path d="M13.5 29H10.5C9.70435 29 8.94129 28.6839 8.37868 28.1213C7.81607 27.5587 7.5 26.7956 7.5 26V23V14V11C7.5 10.2044 7.81607 9.44129 8.37868 8.87868C8.94129 8.31607 9.70435 8 10.5 8H13.5H22.5H25.5C26.2956 8 27.0587 8.31607 27.6213 8.87868C28.1839 9.44129 28.5 10.2044 28.5 11V14V23V26C28.5 26.7956 28.1839 27.5587 27.6213 28.1213C27.0587 28.6839 26.2956 29 25.5 29H22.5H13.5Z" fill="url(#paint0_linear_60_276)"/>
<path d="M13.5 5V8M22.5 5V8M13.5 29V32M22.5 29V32M7.5 14H4.5M7.5 23H4.5M31.5 14H28.5M31.5 23H28.5M10.5 29H25.5C26.2956 29 27.0587 28.6839 27.6213 28.1213C28.1839 27.5587 28.5 26.7956 28.5 26V11C28.5 10.2044 28.1839 9.44129 27.6213 8.87868C27.0587 8.31607 26.2956 8 25.5 8H10.5C9.70435 8 8.94129 8.31607 8.37868 8.87868C7.81607 9.44129 7.5 10.2044 7.5 11V26C7.5 26.7956 7.81607 27.5587 8.37868 28.1213C8.94129 28.6839 9.70435 29 10.5 29ZM13.5 14H22.5V23H13.5V14Z" stroke="white" stroke-linecap="round" stroke-linejoin="round"/>
<defs>
<linearGradient id="paint0_linear_60_276" x1="18" y1="5" x2="18" y2="32" gradientUnits="userSpaceOnUse">
<stop stop-color="#D9D9D9" stop-opacity="0"/>
<stop offset="1" stop-color="#D9D9D9" stop-opacity="0.2"/>
</linearGradient>
</defs>
</svg>
