<svg width="35" height="34" viewBox="0 0 35 34" fill="none" xmlns="http://www.w3.org/2000/svg">
<path d="M31.6673 28.3334H24.584H10.4173H3.33398V25.5001C3.33405 24.6168 3.60929 23.7556 4.12145 23.036C4.63362 22.3164 5.35725 21.7742 6.19176 21.4849C7.02626 21.1956 7.93019 21.1734 8.77786 21.4215C9.62554 21.6696 10.3749 22.1757 10.9217 22.8693C11.4477 21.5546 12.3557 20.4277 13.5283 19.6338C14.701 18.84 16.0846 18.4158 17.5007 18.4158C18.9167 18.4158 20.3003 18.84 21.473 19.6338C22.6456 20.4277 23.5536 21.5546 24.0797 22.8693C24.6264 22.1757 25.3758 21.6696 26.2234 21.4215C27.0711 21.1734 27.975 21.1956 28.8095 21.4849C29.6441 21.7742 30.3677 22.3164 30.8798 23.036C31.392 23.7556 31.6673 24.6168 31.6673 25.5001V28.3334Z" fill="url(#paint0_linear_60_267)"/>
<path d="M20.5059 12.922C21.3029 12.1249 21.7507 11.0439 21.7507 9.91675C21.7507 8.78958 21.3029 7.70857 20.5059 6.91154C19.7088 6.11451 18.6278 5.66675 17.5007 5.66675C16.3735 5.66675 15.2925 6.11451 14.4954 6.91154C13.6984 7.70857 13.2507 8.78958 13.2507 9.91675C13.2507 11.0439 13.6984 12.1249 14.4954 12.922C15.2925 13.719 16.3735 14.1667 17.5007 14.1667C18.6278 14.1667 19.7088 13.719 20.5059 12.922Z" fill="url(#paint1_linear_60_267)"/>
<path d="M29.4208 16.1702C29.9521 15.6389 30.2507 14.9182 30.2507 14.1667C30.2507 13.4153 29.9521 12.6946 29.4208 12.1633C28.8894 11.6319 28.1688 11.3334 27.4173 11.3334C26.6659 11.3334 25.9452 11.6319 25.4139 12.1633C24.8825 12.6946 24.584 13.4153 24.584 14.1667C24.584 14.9182 24.8825 15.6389 25.4139 16.1702C25.9452 16.7016 26.6659 17.0001 27.4173 17.0001C28.1688 17.0001 28.8894 16.7016 29.4208 16.1702Z" fill="url(#paint2_linear_60_267)"/>
<path d="M9.58745 16.1702C10.1188 15.6389 10.4173 14.9182 10.4173 14.1667C10.4173 13.4153 10.1188 12.6946 9.58745 12.1633C9.0561 11.6319 8.33543 11.3334 7.58398 11.3334C6.83254 11.3334 6.11187 11.6319 5.58052 12.1633C5.04916 12.6946 4.75065 13.4153 4.75065 14.1667C4.75065 14.9182 5.04916 15.6389 5.58052 16.1702C6.11187 16.7016 6.83254 17.0001 7.58398 17.0001C8.33543 17.0001 9.0561 16.7016 9.58745 16.1702Z" fill="url(#paint3_linear_60_267)"/>
<path d="M24.584 28.3334H31.6673V25.5001C31.6673 24.6168 31.392 23.7556 30.8798 23.036C30.3677 22.3164 29.6441 21.7742 28.8095 21.4849C27.975 21.1956 27.0711 21.1734 26.2234 21.4215C25.3758 21.6696 24.6264 22.1757 24.0797 22.8693M24.584 28.3334H10.4173M24.584 28.3334V25.5001C24.584 24.5707 24.4055 23.6825 24.0797 22.8693M24.0797 22.8693C23.5536 21.5546 22.6456 20.4277 21.473 19.6338C20.3003 18.84 18.9167 18.4158 17.5007 18.4158C16.0846 18.4158 14.701 18.84 13.5283 19.6338C12.3557 20.4277 11.4477 21.5546 10.9217 22.8693M10.4173 28.3334H3.33398V25.5001C3.33405 24.6168 3.60929 23.7556 4.12145 23.036C4.63362 22.3164 5.35725 21.7742 6.19176 21.4849C7.02626 21.1956 7.93019 21.1734 8.77786 21.4215C9.62554 21.6696 10.3749 22.1757 10.9217 22.8693M10.4173 28.3334V25.5001C10.4173 24.5707 10.5958 23.6825 10.9217 22.8693M21.7507 9.91675C21.7507 11.0439 21.3029 12.1249 20.5059 12.922C19.7088 13.719 18.6278 14.1667 17.5007 14.1667C16.3735 14.1667 15.2925 13.719 14.4954 12.922C13.6984 12.1249 13.2507 11.0439 13.2507 9.91675C13.2507 8.78958 13.6984 7.70857 14.4954 6.91154C15.2925 6.11451 16.3735 5.66675 17.5007 5.66675C18.6278 5.66675 19.7088 6.11451 20.5059 6.91154C21.3029 7.70857 21.7507 8.78958 21.7507 9.91675ZM30.2507 14.1667C30.2507 14.9182 29.9521 15.6389 29.4208 16.1702C28.8894 16.7016 28.1688 17.0001 27.4173 17.0001C26.6659 17.0001 25.9452 16.7016 25.4139 16.1702C24.8825 15.6389 24.584 14.9182 24.584 14.1667C24.584 13.4153 24.8825 12.6946 25.4139 12.1633C25.9452 11.6319 26.6659 11.3334 27.4173 11.3334C28.1688 11.3334 28.8894 11.6319 29.4208 12.1633C29.9521 12.6946 30.2507 13.4153 30.2507 14.1667ZM10.4173 14.1667C10.4173 14.9182 10.1188 15.6389 9.58745 16.1702C9.0561 16.7016 8.33543 17.0001 7.58398 17.0001C6.83254 17.0001 6.11187 16.7016 5.58052 16.1702C5.04916 15.6389 4.75065 14.9182 4.75065 14.1667C4.75065 13.4153 5.04916 12.6946 5.58052 12.1633C6.11187 11.6319 6.83254 11.3334 7.58398 11.3334C8.33543 11.3334 9.0561 11.6319 9.58745 12.1633C10.1188 12.6946 10.4173 13.4153 10.4173 14.1667Z" stroke="white" stroke-linecap="round" stroke-linejoin="round"/>
<defs>
<linearGradient id="paint0_linear_60_267" x1="17.5007" y1="5.66675" x2="17.5007" y2="28.3334" gradientUnits="userSpaceOnUse">
<stop stop-color="#D9D9D9" stop-opacity="0"/>
<stop offset="1" stop-color="#D9D9D9" stop-opacity="0.2"/>
</linearGradient>
<linearGradient id="paint1_linear_60_267" x1="17.5007" y1="5.66675" x2="17.5007" y2="28.3334" gradientUnits="userSpaceOnUse">
<stop stop-color="#D9D9D9" stop-opacity="0"/>
<stop offset="1" stop-color="#D9D9D9" stop-opacity="0.2"/>
</linearGradient>
<linearGradient id="paint2_linear_60_267" x1="17.5007" y1="5.66675" x2="17.5007" y2="28.3334" gradientUnits="userSpaceOnUse">
<stop stop-color="#D9D9D9" stop-opacity="0"/>
<stop offset="1" stop-color="#D9D9D9" stop-opacity="0.2"/>
</linearGradient>
<linearGradient id="paint3_linear_60_267" x1="17.5007" y1="5.66675" x2="17.5007" y2="28.3334" gradientUnits="userSpaceOnUse">
<stop stop-color="#D9D9D9" stop-opacity="0"/>
<stop offset="1" stop-color="#D9D9D9" stop-opacity="0.2"/>
</linearGradient>
</defs>
</svg>
