<svg width="24" height="24" viewBox="0 0 24 24" fill="none" xmlns="http://www.w3.org/2000/svg">
<path d="M12 22C12 22 4 18.07 4 10C4 7.87827 4.84273 5.84345 6.34302 4.34315C7.84331 2.84286 9.87827 2 12 2C14.1217 2 16.1564 2.84286 17.6567 4.34315C19.157 5.84345 20 7.87827 20 10C20 18.07 12 22 12 22Z" stroke="#0A102F" stroke-opacity="0.7" stroke-width="2" stroke-linejoin="round"/>
<path d="M12 13C13.6569 13 15 11.6569 15 10C15 8.34314 13.6569 7 12 7C10.3431 7 9 8.34314 9 10C9 11.6569 10.3431 13 12 13Z" stroke="#0A102F" stroke-opacity="0.7" stroke-width="2" stroke-miterlimit="10"/>
</svg>
