<svg width="52" height="51" viewBox="0 0 52 51" fill="none" xmlns="http://www.w3.org/2000/svg">
<path d="M32.0104 20.8854C33.6045 19.2913 34.5 17.1293 34.5 14.875C34.5 12.6207 33.6045 10.4587 32.0104 8.86459C30.4163 7.27053 28.2543 6.375 26 6.375C23.7457 6.375 21.5837 7.27053 19.9896 8.86459C18.3955 10.4587 17.5 12.6207 17.5 14.875C17.5 17.1293 18.3955 19.2913 19.9896 20.8854C21.5837 22.4795 23.7457 23.375 26 23.375C28.2543 23.375 30.4163 22.4795 32.0104 20.8854Z" fill="url(#paint0_linear_60_294)"/>
<path d="M15.4818 34.1068C18.2714 31.3172 22.0549 29.75 26 29.75C29.9451 29.75 33.7286 31.3172 36.5182 34.1068C39.3078 36.8964 40.875 40.6799 40.875 44.625H11.125C11.125 40.6799 12.6922 36.8964 15.4818 34.1068Z" fill="url(#paint1_linear_60_294)"/>
<path d="M32.0104 20.8854C33.6045 19.2913 34.5 17.1293 34.5 14.875C34.5 12.6207 33.6045 10.4587 32.0104 8.86459C30.4163 7.27053 28.2543 6.375 26 6.375C23.7457 6.375 21.5837 7.27053 19.9896 8.86459C18.3955 10.4587 17.5 12.6207 17.5 14.875C17.5 17.1293 18.3955 19.2913 19.9896 20.8854C21.5837 22.4795 23.7457 23.375 26 23.375C28.2543 23.375 30.4163 22.4795 32.0104 20.8854Z" stroke="white" stroke-width="3" stroke-linecap="round" stroke-linejoin="round"/>
<path d="M15.4818 34.1068C18.2714 31.3172 22.0549 29.75 26 29.75C29.9451 29.75 33.7286 31.3172 36.5182 34.1068C39.3078 36.8964 40.875 40.6799 40.875 44.625H11.125C11.125 40.6799 12.6922 36.8964 15.4818 34.1068Z" stroke="white" stroke-width="3" stroke-linecap="round" stroke-linejoin="round"/>
<path d="M25.9998 41.7271C25.8987 41.7282 25.7984 41.7104 25.7054 41.6748C25.6125 41.6393 25.5289 41.5867 25.46 41.5206L23.9177 40.1437C23.8326 40.0693 23.7675 39.9785 23.7275 39.8783C23.6874 39.7782 23.6733 39.6712 23.6864 39.5654L25.2287 29.9274C25.2645 29.7683 25.3609 29.6253 25.5014 29.5225C25.642 29.4197 25.8181 29.3635 25.9998 29.3635C26.1815 29.3635 26.3576 29.4197 26.4982 29.5225C26.6388 29.6253 26.7352 29.7683 26.771 29.9274L28.3133 39.5654C28.3263 39.6712 28.3123 39.7782 28.2722 39.8783C28.2321 39.9785 28.1671 40.0693 28.0819 40.1437L26.5396 41.5206C26.4708 41.5867 26.3872 41.6393 26.2942 41.6748C26.2012 41.7104 26.101 41.7282 25.9998 41.7271ZM25.2749 39.414L25.9998 40.0611L26.7247 39.414L25.9998 34.8978L25.2749 39.414Z" fill="white"/>
<defs>
<linearGradient id="paint0_linear_60_294" x1="26" y1="6.375" x2="26" y2="44.625" gradientUnits="userSpaceOnUse">
<stop stop-color="#D9D9D9" stop-opacity="0.2"/>
<stop offset="1" stop-color="#D9D9D9" stop-opacity="0"/>
</linearGradient>
<linearGradient id="paint1_linear_60_294" x1="26" y1="6.375" x2="26" y2="44.625" gradientUnits="userSpaceOnUse">
<stop stop-color="#D9D9D9" stop-opacity="0.2"/>
<stop offset="1" stop-color="#D9D9D9" stop-opacity="0"/>
</linearGradient>
</defs>
</svg>
