<svg width="51" height="51" viewBox="0 0 51 51" fill="none" xmlns="http://www.w3.org/2000/svg">
<path d="M40.375 10.625V44.625H29.75H21.25H10.625V10.625C10.625 9.49783 11.0728 8.41683 11.8698 7.6198C12.6668 6.82277 13.7478 6.375 14.875 6.375H36.125C37.2522 6.375 38.3332 6.82277 39.1302 7.6198C39.9272 8.41683 40.375 9.49783 40.375 10.625Z" fill="url(#paint0_linear_60_297)"/>
<path d="M40.375 44.625V10.625C40.375 9.49783 39.9272 8.41683 39.1302 7.6198C38.3332 6.82277 37.2522 6.375 36.125 6.375H14.875C13.7478 6.375 12.6668 6.82277 11.8698 7.6198C11.0728 8.41683 10.625 9.49783 10.625 10.625V44.625M40.375 44.625H10.625M40.375 44.625H44.625M40.375 44.625H29.75M10.625 44.625H6.375M10.625 44.625H21.25M29.75 44.625V34C29.75 33.4364 29.5261 32.8959 29.1276 32.4974C28.7291 32.0989 28.1886 31.875 27.625 31.875H23.375C22.8114 31.875 22.2709 32.0989 21.8724 32.4974C21.4739 32.8959 21.25 33.4364 21.25 34V44.625M29.75 44.625H21.25M19.125 14.875H21.25M19.125 23.375H21.25M29.75 14.875H31.875M29.75 23.375H31.875" stroke="white" stroke-width="3" stroke-linecap="round" stroke-linejoin="round"/>
<defs>
<linearGradient id="paint0_linear_60_297" x1="26" y1="6" x2="25.5" y2="44.625" gradientUnits="userSpaceOnUse">
<stop stop-opacity="0"/>
<stop offset="1" stop-opacity="0.2"/>
</linearGradient>
</defs>
</svg>
