<svg width="52" height="51" viewBox="0 0 52 51" fill="none" xmlns="http://www.w3.org/2000/svg">
<path d="M34.5 8.5V12.75H40.875C42.0022 12.75 43.0832 13.1978 43.8802 13.9948C44.6772 14.7918 45.125 15.8728 45.125 17V28.1669V38.25C45.125 39.3772 44.6772 40.4582 43.8802 41.2552C43.0832 42.0522 42.0022 42.5 40.875 42.5H11.125C9.99783 42.5 8.91683 42.0522 8.1198 41.2552C7.32277 40.4582 6.875 39.3772 6.875 38.25V28.1669V17C6.875 15.8728 7.32277 14.7918 8.1198 13.9948C8.91683 13.1978 9.99783 12.75 11.125 12.75H17.5V8.5C17.5 7.37283 17.9478 6.29183 18.7448 5.4948C19.5418 4.69777 20.6228 4.25 21.75 4.25H30.25C31.3772 4.25 32.4582 4.69777 33.2552 5.4948C34.0522 6.29183 34.5 7.37283 34.5 8.5Z" fill="url(#paint0_linear_60_306)"/>
<path d="M45.125 28.1669C39.0485 30.6239 32.5544 31.883 26 31.875C19.2361 31.875 12.7825 30.5575 6.875 28.1669M26 25.5H26.0213M34.5 12.75V8.5C34.5 7.37283 34.0522 6.29183 33.2552 5.4948C32.4582 4.69777 31.3772 4.25 30.25 4.25H21.75C20.6228 4.25 19.5418 4.69777 18.7448 5.4948C17.9478 6.29183 17.5 7.37283 17.5 8.5V12.75H34.5ZM11.125 42.5H40.875C42.0022 42.5 43.0832 42.0522 43.8802 41.2552C44.6772 40.4582 45.125 39.3772 45.125 38.25V17C45.125 15.8728 44.6772 14.7918 43.8802 13.9948C43.0832 13.1978 42.0022 12.75 40.875 12.75H11.125C9.99783 12.75 8.91683 13.1978 8.1198 13.9948C7.32277 14.7918 6.875 15.8728 6.875 17V38.25C6.875 39.3772 7.32277 40.4582 8.1198 41.2552C8.91683 42.0522 9.99783 42.5 11.125 42.5Z" stroke="white" stroke-width="3" stroke-linecap="round" stroke-linejoin="round"/>
<defs>
<linearGradient id="paint0_linear_60_306" x1="26" y1="4.25" x2="26" y2="42.5" gradientUnits="userSpaceOnUse">
<stop stop-color="#D9D9D9" stop-opacity="0.2"/>
<stop offset="1" stop-color="#D9D9D9" stop-opacity="0"/>
</linearGradient>
</defs>
</svg>
