<svg width="52" height="51" viewBox="0 0 52 51" fill="none" xmlns="http://www.w3.org/2000/svg">
<path d="M23.5615 35.6611C22.7861 35.3343 22.083 34.8571 21.4929 34.2571C20.3136 33.0582 19.6558 31.4418 19.6628 29.76C19.6699 28.0783 20.3412 26.4674 21.5305 25.2784C22.7198 24.0893 24.3308 23.4184 26.0126 23.4118C27.6943 23.4051 29.3106 24.0633 30.5092 25.2429C31.1091 25.8331 31.5861 26.5363 31.9128 27.3119C32.2395 28.0874 32.4094 28.92 32.4127 29.7615C32.416 30.603 32.2527 31.4369 31.9322 32.215C31.6116 32.9931 31.1402 33.7001 30.545 34.295C29.9499 34.89 29.2429 35.3613 28.4647 35.6817C27.6865 36.0021 26.8526 36.1652 26.0111 36.1617C25.1695 36.1581 24.337 35.988 23.5615 35.6611Z" fill="url(#paint0_linear_60_300)"/>
<path d="M21.75 44.625H36.625C37.7522 44.625 38.8332 44.1772 39.6302 43.3802C40.4272 42.5832 40.875 41.5022 40.875 40.375V20.0047C40.8749 19.4412 40.6509 18.9008 40.2524 18.5024L28.7476 6.99762C28.3492 6.59908 27.8088 6.37512 27.2453 6.375H15.375C14.2478 6.375 13.1668 6.82277 12.3698 7.6198C11.5728 8.41683 11.125 9.49783 11.125 10.625V34M11.125 44.625L21.4929 34.2571M21.4929 34.2571C22.083 34.8571 22.7861 35.3343 23.5615 35.6611C24.337 35.988 25.1695 36.1581 26.0111 36.1617C26.8526 36.1652 27.6865 36.0021 28.4647 35.6817C29.2429 35.3613 29.9499 34.89 30.545 34.295C31.1402 33.7001 31.6116 32.9931 31.9322 32.215C32.2527 31.4369 32.416 30.603 32.4127 29.7615C32.4094 28.92 32.2395 28.0874 31.9128 27.3119C31.5861 26.5363 31.1091 25.8331 30.5092 25.2429C29.3106 24.0633 27.6943 23.4051 26.0126 23.4118C24.3308 23.4184 22.7198 24.0893 21.5305 25.2784C20.3412 26.4674 19.6699 28.0783 19.6628 29.76C19.6558 31.4418 20.3136 33.0582 21.4929 34.2571Z" stroke="white" stroke-width="3" stroke-linecap="round" stroke-linejoin="round"/>
<defs>
<linearGradient id="paint0_linear_60_300" x1="26" y1="6.375" x2="26" y2="44.625" gradientUnits="userSpaceOnUse">
<stop stop-color="#D9D9D9"/>
<stop offset="1" stop-color="#D9D9D9" stop-opacity="0"/>
</linearGradient>
</defs>
</svg>
