<svg width="40" height="41" viewBox="0 0 40 41" fill="none" xmlns="http://www.w3.org/2000/svg">
<path d="M8.33333 10.5H16.6667V8.83333C16.6667 7.94928 17.0179 7.10143 17.643 6.47631C18.2681 5.85119 19.1159 5.5 20 5.5C20.8841 5.5 21.7319 5.85119 22.357 6.47631C22.9821 7.10143 23.3333 7.94928 23.3333 8.83333V10.5H31.6667C32.5507 10.5 33.3986 10.8512 34.0237 11.4763C34.6488 12.1014 35 12.9493 35 13.8333V28.8333C35 29.7174 34.6488 30.5652 34.0237 31.1904C33.3986 31.8155 32.5507 32.1667 31.6667 32.1667H8.33333C7.44928 32.1667 6.60143 31.8155 5.97631 31.1904C5.35119 30.5652 5 29.7174 5 28.8333V13.8333C5 12.9493 5.35119 12.1014 5.97631 11.4763C6.60143 10.8512 7.44928 10.5 8.33333 10.5Z" fill="url(#paint0_linear_60_275)"/>
<path d="M16.6667 10.5H8.33333C7.44928 10.5 6.60143 10.8512 5.97631 11.4763C5.35119 12.1014 5 12.9493 5 13.8333V28.8333C5 29.7174 5.35119 30.5652 5.97631 31.1904C6.60143 31.8155 7.44928 32.1667 8.33333 32.1667H31.6667C32.5507 32.1667 33.3986 31.8155 34.0237 31.1904C34.6488 30.5652 35 29.7174 35 28.8333V13.8333C35 12.9493 34.6488 12.1014 34.0237 11.4763C33.3986 10.8512 32.5507 10.5 31.6667 10.5H23.3333M16.6667 10.5V8.83333C16.6667 7.94928 17.0179 7.10143 17.643 6.47631C18.2681 5.85119 19.1159 5.5 20 5.5C20.8841 5.5 21.7319 5.85119 22.357 6.47631C22.9821 7.10143 23.3333 7.94928 23.3333 8.83333V10.5M16.6667 10.5C16.6667 11.3841 17.0179 12.2319 17.643 12.857C18.2681 13.4821 19.1159 13.8333 20 13.8333C20.8841 13.8333 21.7319 13.4821 22.357 12.857C22.9821 12.2319 23.3333 11.3841 23.3333 10.5M15 23.8333C15.8841 23.8333 16.7319 23.4821 17.357 22.857C17.9821 22.2319 18.3333 21.3841 18.3333 20.5C18.3333 19.6159 17.9821 18.7681 17.357 18.143C16.7319 17.5179 15.8841 17.1667 15 17.1667C14.1159 17.1667 13.2681 17.5179 12.643 18.143C12.0179 18.7681 11.6667 19.6159 11.6667 20.5C11.6667 21.3841 12.0179 22.2319 12.643 22.857C13.2681 23.4821 14.1159 23.8333 15 23.8333ZM15 23.8333C17.1767 23.8333 19.0283 25.225 19.7167 27.1667M15 23.8333C13.9656 23.833 12.9566 24.1534 12.1119 24.7504C11.2672 25.3474 10.6284 26.1915 10.2833 27.1667M25 18.8333H30M25 25.5H28.3333" stroke="white" stroke-linecap="round" stroke-linejoin="round"/>
<defs>
<linearGradient id="paint0_linear_60_275" x1="20" y1="5.5" x2="20" y2="32.1667" gradientUnits="userSpaceOnUse">
<stop stop-color="#D9D9D9" stop-opacity="0"/>
<stop offset="1" stop-color="#D9D9D9" stop-opacity="0.2"/>
</linearGradient>
</defs>
</svg>
