<svg width="35" height="34" viewBox="0 0 35 34" fill="none" xmlns="http://www.w3.org/2000/svg">
<path d="M28.8333 5.66675H6.16667V22.6667C6.16667 23.0425 6.31592 23.4028 6.5816 23.6685C6.84728 23.9342 7.20761 24.0834 7.58333 24.0834H17.5H27.4167C27.7924 24.0834 28.1527 23.9342 28.4184 23.6685C28.6841 23.4028 28.8333 23.0425 28.8333 22.6667V5.66675Z" fill="url(#paint0_linear_60_266)"/>
<path d="M11.8333 18.4167V17.0001M17.5 18.4167V14.1667M23.1667 18.4167V11.3334M11.8333 29.7501L17.5 24.0834L23.1667 29.7501M4.75 5.66675H30.25M6.16667 5.66675H28.8333V22.6667C28.8333 23.0425 28.6841 23.4028 28.4184 23.6685C28.1527 23.9342 27.7924 24.0834 27.4167 24.0834H7.58333C7.20761 24.0834 6.84728 23.9342 6.5816 23.6685C6.31592 23.4028 6.16667 23.0425 6.16667 22.6667V5.66675Z" stroke="white" stroke-linecap="round" stroke-linejoin="round"/>
<defs>
<linearGradient id="paint0_linear_60_266" x1="17.5" y1="-5.99988" x2="17.5" y2="29.7501" gradientUnits="userSpaceOnUse">
<stop stop-color="#D9D9D9" stop-opacity="0"/>
<stop offset="1" stop-color="#D9D9D9" stop-opacity="0.2"/>
</linearGradient>
</defs>
</svg>
