<svg width="31" height="31" viewBox="0 0 31 31" fill="none" xmlns="http://www.w3.org/2000/svg">
<path d="M19.154 12.6951C20.123 11.7261 20.6673 10.412 20.6673 9.04167C20.6673 7.67138 20.123 6.35722 19.154 5.38828C18.1851 4.41934 16.8709 3.875 15.5007 3.875C14.1304 3.875 12.8162 4.41934 11.8473 5.38828C10.8783 6.35722 10.334 7.67138 10.334 9.04167C10.334 10.412 10.8783 11.7261 11.8473 12.6951C12.8162 13.664 14.1304 14.2083 15.5007 14.2083C16.8709 14.2083 18.1851 13.664 19.154 12.6951Z" fill="url(#paint0_linear_60_274)"/>
<path d="M9.10723 20.7316C10.8029 19.0359 13.1027 18.0833 15.5007 18.0833C17.8987 18.0833 20.1984 19.0359 21.8941 20.7316C23.5897 22.4272 24.5423 24.727 24.5423 27.125H6.45898C6.45898 24.727 7.41159 22.4272 9.10723 20.7316Z" fill="url(#paint1_linear_60_274)"/>
<path d="M19.154 12.6951C20.123 11.7261 20.6673 10.412 20.6673 9.04167C20.6673 7.67138 20.123 6.35722 19.154 5.38828C18.1851 4.41934 16.8709 3.875 15.5007 3.875C14.1304 3.875 12.8162 4.41934 11.8473 5.38828C10.8783 6.35722 10.334 7.67138 10.334 9.04167C10.334 10.412 10.8783 11.7261 11.8473 12.6951C12.8162 13.664 14.1304 14.2083 15.5007 14.2083C16.8709 14.2083 18.1851 13.664 19.154 12.6951Z" stroke="white" stroke-linecap="round" stroke-linejoin="round"/>
<path d="M9.10723 20.7316C10.8029 19.0359 13.1027 18.0833 15.5007 18.0833C17.8987 18.0833 20.1984 19.0359 21.8941 20.7316C23.5897 22.4272 24.5423 24.727 24.5423 27.125H6.45898C6.45898 24.727 7.41159 22.4272 9.10723 20.7316Z" stroke="white" stroke-linecap="round" stroke-linejoin="round"/>
<defs>
<linearGradient id="paint0_linear_60_274" x1="16.0006" y1="-15" x2="15.5006" y2="27.125" gradientUnits="userSpaceOnUse">
<stop stop-color="#D9D9D9"/>
<stop offset="1" stop-color="#D9D9D9" stop-opacity="0"/>
</linearGradient>
<linearGradient id="paint1_linear_60_274" x1="16.0006" y1="-15" x2="15.5006" y2="27.125" gradientUnits="userSpaceOnUse">
<stop stop-color="#D9D9D9"/>
<stop offset="1" stop-color="#D9D9D9" stop-opacity="0"/>
</linearGradient>
</defs>
</svg>
